<svg width="88" height="95" viewBox="0 0 88 95" fill="none" xmlns="http://www.w3.org/2000/svg">
<g clip-path="url(#clip0_16096_3372)">
<path d="M43.635 26.7087C42.3319 27.7596 41.1129 28.8104 39.8099 29.8613C39.4315 29.483 39.0532 29.1467 38.717 28.7684C36.5312 26.7087 34.1353 24.9433 31.403 23.7243C28.2925 22.3372 25.0139 21.7067 21.6091 21.9589C18.7508 22.2111 16.1447 23.0938 13.9589 25.0274C11.9833 26.7928 10.9324 29.0206 10.3439 31.5427C9.25106 36.4606 9.71344 41.2525 11.2687 46.0024C13.3284 52.2234 16.7331 57.5618 21.6091 61.9753C24.8877 64.9598 28.7969 66.8093 33.0844 67.7761C35.018 68.2384 36.9515 68.4066 38.9271 68.2384C41.6594 67.9862 44.0973 67.0615 46.0309 65.0859C47.7963 63.3204 48.8052 61.1767 49.3096 58.7808C49.898 56.1326 49.856 53.4424 49.5197 50.7522C49.0994 47.3895 48.2167 44.1529 46.9557 41.0424C46.9136 41.0003 46.9136 40.9163 46.8716 40.8322C48.3848 39.8654 49.898 38.8566 51.4113 37.8898C51.6214 37.9739 51.6214 38.142 51.7055 38.2681C53.7652 42.2614 55.2784 46.4227 56.035 50.8363C57.0018 56.4689 56.7916 62.0174 54.6899 67.3977C53.555 70.3401 51.9157 72.9883 49.5618 75.1741C46.9136 77.6541 43.8031 79.0412 40.1882 79.3354C36.5312 79.6297 33.0424 78.831 29.6376 77.4439C26.0647 75.9727 22.8281 73.871 19.8437 71.433C16.1026 68.3645 12.6979 64.9598 9.83954 61.0506C5.21579 54.7875 2.23136 47.7678 0.802205 40.1176C0.297796 37.4274 0.0876245 34.7373 0.213727 32.005C0.423897 28.0959 1.22254 24.3128 3.24018 20.908C5.72019 16.6206 9.46123 14.1826 14.3372 13.426C18.2464 12.7955 22.0715 13.3419 25.8125 14.5189C31.2349 16.2002 35.9007 19.1006 39.978 23.0097C41.1129 24.1026 42.2478 25.1955 43.2987 26.3725C43.4248 26.4565 43.5089 26.5826 43.635 26.7087Z" fill="url(#paint0_radial_16096_3372)"/>
<path d="M71.6298 0.773682C71.7979 2.95946 71.924 5.10319 72.0922 7.24693C72.2603 9.39067 72.4284 11.4924 72.5966 13.6361C72.5966 13.6782 72.5966 13.7202 72.5966 13.7622C72.6386 14.9812 72.4705 14.687 73.6054 15.1493C77.3464 16.6205 81.0875 18.0917 84.8285 19.5629C84.9966 19.605 85.1648 19.689 85.3329 19.7731C84.5343 20.3616 83.7356 20.908 82.979 21.4545C79.322 24.1026 75.6651 26.7087 72.0081 29.3569C70.0325 30.786 67.8467 31.3325 65.4508 31.1223C64.3579 31.0382 63.265 30.6179 62.2142 30.3237C60.9111 29.9454 59.6501 29.6091 58.347 29.1887C58.0528 29.1047 57.8426 29.1467 57.5904 29.3148C54.2277 31.5006 50.8649 33.6444 47.5443 35.8301C42.6683 38.9827 37.7923 42.1352 32.9164 45.2878C31.9916 45.8763 30.8987 45.7081 30.3523 44.8675C29.7638 44.0268 29.932 42.9759 30.7726 42.3034C34.4296 39.319 38.0445 36.3345 41.6595 33.3501C45.5686 30.1555 49.4358 26.9609 53.345 23.7663C53.8914 23.346 54.1016 22.8416 54.1016 22.2111C54.1436 20.6138 54.1856 19.0165 54.2697 17.4612C54.4799 14.5188 55.7409 12.1229 58.1368 10.3575C61.4155 7.96151 64.6942 5.6076 68.0149 3.25369C69.1077 2.45505 70.1586 1.69843 71.2515 0.899784C71.3776 0.85775 71.4617 0.773682 71.6298 0.773682Z" fill="url(#paint1_linear_16096_3372)"/>
<path d="M27.2839 40.664C24.6778 43.144 26.149 48.5244 30.6887 49.4071C32.2019 49.7014 33.7572 49.3651 35.0182 48.5244C37.0358 47.2213 39.0955 45.9183 41.1131 44.5732C41.2392 44.4891 41.3233 44.4471 41.4494 44.363C41.5335 44.4051 41.5755 44.4471 41.5755 44.5312C42.2481 46.6749 42.7104 48.8607 42.6264 51.0885C42.5843 52.5176 42.3321 53.9468 41.6596 55.2498C40.5667 57.3936 38.8013 58.5705 36.4474 58.9068C33.6731 59.3272 31.109 58.6126 28.6711 57.3095C25.4344 55.5441 22.9965 52.98 20.9788 49.9115C19.5917 47.7678 18.4568 45.4559 17.9524 42.9339C17.2798 39.6552 17.5741 36.5026 19.2975 33.5603C20.9368 30.786 23.4168 29.3989 26.6534 29.525C28.7131 29.609 30.5626 30.4497 32.328 31.5426C33.1687 32.0891 33.9674 32.7196 34.724 33.3921C34.808 33.4762 34.8921 33.5603 34.9762 33.6864C34.4718 34.1067 33.9674 34.527 33.4629 34.9474C31.9917 36.2504 28.7972 39.2349 27.2839 40.664Z" fill="#FFB701"/>
<path d="M74.026 92.492C74.026 91.5673 74.026 90.6425 74.026 89.7178C74.026 88.793 74.026 87.8683 74.026 86.9015C74.4884 86.9015 74.8667 86.9015 75.3291 86.9015C75.3291 89.4656 75.3291 92.0717 75.3291 94.6778C74.8667 94.6778 74.3623 94.6778 73.8579 94.6778C72.723 92.8283 71.546 90.9368 70.3691 89.0873C70.327 89.0873 70.327 89.0873 70.285 89.0873C70.285 90.9368 70.285 92.8283 70.285 94.6778C69.8226 94.6778 69.4023 94.6778 68.9819 94.6778C68.9819 92.0717 68.9819 89.5076 68.9819 86.9015C69.4443 86.9015 69.9487 86.9015 70.4531 86.9015C71.5881 88.751 72.765 90.6425 73.942 92.492C73.984 92.492 73.984 92.492 74.026 92.492Z" fill="#023047"/>
<path d="M35.8595 90.9367C35.8595 91.9876 35.4812 93.0805 34.5985 93.9632C33.0432 95.4344 29.7645 95.2663 28.7557 92.534C28.2513 91.231 28.2933 89.8859 28.9238 88.6249C29.6384 87.2798 30.7733 86.6493 32.2866 86.6913C33.7578 86.7333 34.8086 87.4899 35.4391 88.793C35.7334 89.4235 35.8595 90.054 35.8595 90.9367ZM29.8066 90.8947C29.8066 91.4412 29.9327 92.0717 30.2269 92.6601C30.6472 93.4168 31.2778 93.753 32.1184 93.753C32.9591 93.753 33.6317 93.4168 34.01 92.6601C34.6405 91.4411 34.6405 90.1801 34.052 88.9611C33.6737 88.2045 33.0012 87.8262 32.1605 87.8262C31.2778 87.8262 30.6472 88.2045 30.2269 88.9611C29.9327 89.5076 29.8066 90.1381 29.8066 90.8947Z" fill="#023047"/>
<path d="M67.8051 90.8107C67.8051 92.0717 67.4268 93.2066 66.418 94.0473C64.9047 95.3504 61.8362 95.2243 60.7434 92.7022C60.1549 91.3571 60.1969 90.012 60.7854 88.709C61.4579 87.3218 62.803 86.5652 64.4003 86.6913C65.9136 86.8174 67.0905 87.7842 67.5949 89.2975C67.721 89.8019 67.8051 90.3063 67.8051 90.8107ZM61.7101 90.8107C61.7522 91.4832 61.8362 92.1558 62.2145 92.7443C63.0132 94.0894 64.9888 94.1314 65.8715 92.8283C66.5861 91.7354 66.5861 89.8439 65.8715 88.751C64.9888 87.448 63.0132 87.532 62.2145 88.8771C61.8362 89.4656 61.7522 90.0961 61.7101 90.8107Z" fill="#023047"/>
<path d="M21.2735 92.1138C21.7359 92.1138 22.1983 92.1138 22.6186 92.1138C22.6606 92.2819 22.6606 92.408 22.7027 92.5341C22.7867 92.9545 23.0389 93.2907 23.4172 93.4589C24.1318 93.7951 24.8464 93.8372 25.603 93.5429C26.1494 93.3328 26.3596 92.8284 26.2335 92.2819C26.1494 91.9036 25.8972 91.6934 25.561 91.6094C24.8464 91.3572 24.1318 91.2311 23.3752 91.0209C23.2071 90.9788 23.0389 90.9368 22.8708 90.8527C22.1562 90.5585 21.6938 90.0961 21.5677 89.2975C21.4837 88.4988 21.6938 87.7843 22.3664 87.3219C23.123 86.7334 24.0057 86.6073 24.9305 86.7334C25.645 86.8175 26.2756 87.0276 26.78 87.5741C27.2003 87.9944 27.4105 88.5409 27.4105 89.1714C26.9481 89.1714 26.4857 89.1714 26.0654 89.1714C25.7711 88.1205 25.3088 87.7843 24.1739 87.8263C23.9216 87.8263 23.7115 87.8683 23.5013 87.9944C23.165 88.1626 22.9549 88.4148 22.9549 88.7931C22.9549 89.1714 23.081 89.4236 23.4172 89.6338C23.5854 89.7599 23.7955 89.8019 24.0057 89.886C24.6783 90.0541 25.3508 90.2222 26.0233 90.4324C26.9481 90.6846 27.5366 91.3572 27.6627 92.1978C27.7888 93.1646 27.3684 94.0473 26.4857 94.4677C25.1827 95.0982 23.8796 95.0982 22.6186 94.4677C21.6938 93.9633 21.3155 93.1226 21.2735 92.1138Z" fill="#023047"/>
<path d="M48.3011 86.9015C48.7635 86.9015 49.1838 86.9015 49.6042 86.9015C49.6882 87.0276 49.6882 87.1537 49.6882 87.2798C49.6882 88.8351 49.6882 90.3483 49.6882 91.9035C49.6882 92.9544 49.352 93.8791 48.4272 94.4676C47.3343 95.1402 45.3167 95.0561 44.3079 94.2995C43.5933 93.753 43.2991 92.9544 43.257 92.1137C43.215 90.4744 43.257 88.793 43.257 87.1537C43.257 87.1116 43.257 87.0276 43.3411 86.9855C43.7614 86.9855 44.1818 86.9855 44.6021 86.9855C44.6862 87.1117 44.6441 87.2378 44.6441 87.3639C44.6441 88.9191 44.6441 90.4744 44.6441 92.0296C44.6441 92.5761 44.8123 93.0805 45.2747 93.4168C45.8211 93.8371 47.0401 93.8371 47.6286 93.4168C48.133 93.0385 48.2591 92.492 48.3011 91.9035C48.3011 90.3903 48.3011 88.8771 48.3011 87.3639C48.3011 87.1957 48.3011 87.0696 48.3011 86.9015Z" fill="#023047"/>
<path d="M54.3962 94.6778C53.8918 94.6778 53.4715 94.6778 53.0091 94.6778C53.0091 92.492 53.0091 90.3062 53.0091 88.0784C52.1684 88.0784 51.3698 88.0784 50.5711 88.0784C50.5291 87.6581 50.5291 87.2798 50.5711 86.9015C52.6728 86.9015 54.7746 86.9015 56.8763 86.9015C56.9183 87.2798 56.8763 87.6581 56.8763 88.0784C56.0776 88.0784 55.279 88.0784 54.4383 88.0784C54.3962 90.3062 54.3962 92.45 54.3962 94.6778Z" fill="#023047"/>
<path d="M37.1199 86.9015C37.5823 86.9015 38.0026 86.9015 38.465 86.9015C38.465 89.0873 38.465 91.273 38.465 93.5008C39.8101 93.5008 41.1132 93.5008 42.4162 93.5008C42.4162 93.9212 42.4162 94.2995 42.4162 94.6778C40.6508 94.6778 38.8854 94.6778 37.1199 94.6778C37.1199 92.0717 37.1199 89.5076 37.1199 86.9015Z" fill="#023047"/>
<path d="M0.129883 94.6358C0.129883 92.0717 0.129883 89.5076 0.129883 86.9435C0.255985 86.8595 0.340052 86.9015 0.42412 86.9015C1.2648 86.9015 2.10548 86.9015 2.94617 86.9015C3.57668 86.9015 4.16516 87.0276 4.7116 87.3639C5.63635 87.8683 6.05669 88.709 6.22483 89.6757C6.35093 90.5164 6.35093 91.3571 6.14076 92.1978C5.80449 93.6269 4.79567 94.4676 3.32448 94.5937C2.31566 94.6778 1.2648 94.5517 0.21395 94.6358C0.255984 94.6778 0.213951 94.6358 0.129883 94.6358ZM0.844462 94.0473C1.30684 94.0473 1.76921 94.0473 2.18955 94.0473C2.69396 94.0473 3.24041 94.0473 3.74482 93.9212C4.54346 93.711 5.13194 93.2486 5.38415 92.492C5.72042 91.5673 5.72042 90.6005 5.51025 89.6337C5.30008 88.4988 4.62753 87.8262 3.49261 87.6161C2.65193 87.4479 1.76921 87.49 0.928528 87.532C0.928528 87.532 0.886496 87.574 0.844462 87.574C0.844462 89.7178 0.844462 91.8615 0.844462 94.0473Z" fill="#023047"/>
<path d="M10.8481 86.7333C12.8237 86.6913 14.0847 88.0784 14.379 89.7177C14.5892 90.7266 14.5051 91.7354 14.0847 92.7022C13.4122 94.2574 11.899 94.93 10.3437 94.7618C8.62031 94.5517 7.48539 93.2906 7.23319 91.5672C7.14912 90.8106 7.14912 90.054 7.35929 89.2974C7.7376 87.9523 8.95659 86.6913 10.8481 86.7333ZM7.90573 90.8527C7.90573 91.1049 7.90573 91.4411 7.9898 91.7354C8.242 92.9964 9.08269 94.0893 10.5539 94.2154C11.6888 94.3415 12.7397 93.8791 13.2861 92.8283C13.9586 91.5252 14.0007 90.1801 13.3702 88.8771C12.4874 86.9435 9.75523 86.9015 8.66235 88.3727C8.07387 89.0872 7.90573 89.8859 7.90573 90.8527Z" fill="#023047"/>
<path d="M57.759 86.9015C58.2214 86.9015 58.6417 86.9015 59.1041 86.9015C59.1041 89.5076 59.1041 92.0717 59.1041 94.6778C58.6838 94.6778 58.2214 94.6778 57.759 94.6778C57.759 92.1137 57.759 89.5076 57.759 86.9015Z" fill="#023047"/>
<path d="M20.9373 86.9435C20.9793 87.1116 20.9793 87.2798 20.9373 87.532C20.5169 87.532 20.0545 87.532 19.5922 87.532C19.1718 87.532 18.7095 87.532 18.205 87.532C18.205 88.751 18.205 89.928 18.205 91.1049C18.205 92.2819 18.205 93.4588 18.205 94.6358C17.9949 94.7198 17.7847 94.6778 17.5325 94.6358C17.5325 92.2819 17.5325 89.9279 17.5325 87.49C16.6498 87.49 15.7671 87.49 14.9264 87.49C14.8423 87.2798 14.8423 87.1117 14.8844 86.9015C16.902 86.9435 18.9196 86.9435 20.9373 86.9435Z" fill="#023047"/>
<path d="M87.2669 92.4079C87.1829 92.492 87.0988 92.45 87.0147 92.45L86.9727 92.4079C86.7625 91.8615 86.3842 91.6513 85.8378 91.6933C85.3334 91.7354 84.955 92.0296 84.8289 92.5761C84.7028 93.0805 84.7028 93.5429 84.9971 93.9632C85.2493 94.4256 85.8378 94.5937 86.3842 94.4256C86.8466 94.2574 87.0988 93.8371 87.0568 93.3327C86.7205 93.3327 86.3842 93.3327 86.09 93.3327C85.9639 93.2486 86.0059 93.1645 86.0479 93.0384C86.4683 93.0384 86.9306 93.0384 87.4351 93.0384C87.4351 93.5428 87.4351 94.0473 87.4351 94.5517C87.4351 94.6778 87.351 94.7198 87.1829 94.6778C87.1829 94.5517 87.1408 94.3835 87.1408 94.2154C86.8045 94.6778 86.3842 94.8459 85.8798 94.7618C84.955 94.6357 84.3666 93.8371 84.4927 92.8283C84.6188 91.7354 85.3754 91.1889 86.3842 91.3991C86.8466 91.5252 87.2249 91.9035 87.2669 92.4079Z" fill="#023047"/>
<path d="M81.5926 91.4412C82.1811 91.4412 82.7276 91.3991 83.274 91.4832C83.7364 91.5252 83.9466 91.7775 84.0306 92.1558C84.1147 92.5341 83.9886 92.8283 83.6103 93.0805L83.5682 93.1225C84.1988 93.4588 83.9045 94.1314 84.0727 94.6358C83.9466 94.7199 83.8625 94.7199 83.7364 94.6358C83.6523 94.4256 83.6523 94.2154 83.6523 93.9632C83.6103 93.4168 83.4422 93.2486 82.8537 93.2486C82.5594 93.2486 82.2652 93.2486 81.9709 93.2486C81.9709 93.2486 81.9289 93.2486 81.8869 93.2907C81.8869 93.711 81.8869 94.1734 81.8869 94.5517C81.7608 94.6778 81.6767 94.6778 81.5926 94.6358C81.5506 94.5937 81.5506 91.9876 81.5926 91.4412ZM81.9289 91.7354C81.9289 92.1558 81.8869 92.5341 81.9289 92.9544C82.3492 92.9544 82.7696 92.9544 83.1899 92.9544C83.5262 92.9544 83.7364 92.6602 83.7364 92.3239C83.7364 91.9876 83.5262 91.7775 83.1899 91.7354C82.7696 91.7354 82.3492 91.7354 81.9289 91.7354Z" fill="#023047"/>
<path d="M81.1293 93.0384C81.1293 94.2154 80.3307 94.93 79.2378 94.7198C78.7334 94.6357 78.3971 94.3415 78.229 93.8791C78.0188 93.4168 78.0188 92.9544 78.1449 92.45C78.3551 91.7354 78.9015 91.3151 79.6161 91.3151C80.3307 91.3571 80.8771 91.7774 81.0453 92.492C81.0873 92.7022 81.1293 92.8703 81.1293 93.0384ZM80.751 93.0805C80.751 92.9964 80.751 92.9123 80.751 92.8283C80.667 92.1978 80.2886 91.7774 79.7422 91.6934C79.1117 91.6093 78.6493 91.9035 78.4391 92.492C78.271 92.9124 78.313 93.3747 78.4812 93.7951C78.6493 94.2574 79.0696 94.5096 79.5741 94.5096C80.0785 94.5096 80.4147 94.2574 80.6249 93.8371C80.751 93.5429 80.7931 93.3327 80.751 93.0805Z" fill="#023047"/>
<path d="M77.2629 93.9633C77.3049 94.2155 77.3049 94.4256 77.2629 94.5938C77.0947 94.6778 76.9266 94.6778 76.7585 94.6358C76.7164 94.4256 76.7164 94.1734 76.7585 93.9633C76.9266 93.9212 77.0947 93.9633 77.2629 93.9633Z" fill="#023047"/>
</g>
<defs>
<radialGradient id="paint0_radial_16096_3372" cx="0" cy="0" r="1" gradientUnits="userSpaceOnUse" gradientTransform="translate(28.4055 46.3135) scale(30.7754 61.5507)">
<stop offset="0.9367" stop-color="#209BB9"/>
<stop offset="1" stop-color="#8ECAE6"/>
</radialGradient>
<linearGradient id="paint1_linear_16096_3372" x1="29.9633" y1="23.2024" x2="85.3329" y2="23.2024" gradientUnits="userSpaceOnUse">
<stop offset="0.2106" stop-color="#FFB703"/>
<stop offset="0.5845" stop-color="#FB8501"/>
</linearGradient>
<clipPath id="clip0_16096_3372">
<rect width="88" height="95" fill="white"/>
</clipPath>
</defs>
</svg>
